<svg width="24" height="24" viewBox="0 0 24 24" fill="none" xmlns="http://www.w3.org/2000/svg">
<path d="M2 12.06C2.00056 14.456 2.85047 16.7732 4.39696 18.5952C5.94345 20.4172 8.08511 21.6244 10.437 21.9999V14.9678H7.9V12.06H10.44V9.84645C10.3839 9.32836 10.4419 8.80421 10.6098 8.31121C10.7777 7.8182 11.0515 7.36845 11.4116 6.9939C11.7718 6.61934 12.2095 6.32916 12.6936 6.14398C13.1778 5.95879 13.6965 5.88314 14.213 5.9224C14.963 5.93447 15.713 6.00189 16.453 6.12363V8.5978H15.189C14.9742 8.56948 14.7558 8.59011 14.5499 8.65815C14.3441 8.72618 14.1561 8.83989 13.9998 8.99087C13.8435 9.14185 13.7229 9.32624 13.647 9.53041C13.571 9.73458 13.5416 9.95331 13.561 10.1704V12.06H16.332L15.889 14.9688H13.561V21.9999C15.4486 21.6998 17.2112 20.8617 18.6402 19.5849C20.0691 18.3081 21.1045 16.6461 21.6238 14.7956C22.143 12.9451 22.1244 10.9837 21.5702 9.14348C21.0159 7.30329 19.9492 5.66143 18.4964 4.41229C17.0435 3.16314 15.2653 2.35903 13.3724 2.09515C11.4794 1.83126 9.55092 2.11866 7.81525 2.92332C6.07958 3.72798 4.60942 5.01619 3.5788 6.63545C2.54819 8.2547 2.0003 10.1372 2 12.06Z" fill="#B6B6B6"/>
</svg>
